<?xml version="1.0" standalone="no"?>
<!DOCTYPE svg PUBLIC "-//W3C//DTD SVG 20010904//EN"
 "http://www.w3.org/TR/2001/REC-SVG-20010904/DTD/svg10.dtd">
<svg version="1.0" xmlns="http://www.w3.org/2000/svg"
 width="671.000000pt" height="671.000000pt" viewBox="0 0 671.000000 671.000000"
 preserveAspectRatio="xMidYMid meet">
<metadata>
Created by potrace 1.14, written by Peter Selinger 2001-2017
</metadata>
<g transform="translate(0.000000,671.000000) scale(0.100000,-0.100000)"
fill="#000000" stroke="none">
<path d="M3960 4902 c-134 -241 -372 -664 -528 -942 -156 -278 -295 -525 -309
-550 -219 -394 -456 -810 -461 -810 -6 0 -141 401 -138 406 1 1 50 4 109 7 59
2 109 6 111 8 14 18 254 474 251 477 -7 7 -1265 15 -1265 9 0 -6 120 -373 400
-1222 65 -198 174 -526 241 -730 67 -203 124 -374 126 -378 3 -5 20 17 38 50
34 61 778 1382 1007 1788 75 132 149 263 164 291 223 399 350 621 354 617 3
-2 37 -99 76 -214 l71 -209 -116 0 -116 -1 -76 -142 c-43 -78 -100 -186 -129
-239 l-51 -98 630 0 c347 0 631 1 631 3 0 14 -762 2301 -769 2309 -3 3 -116
-190 -251 -430z"/>
</g>
</svg>
